<svg xmlns="http://www.w3.org/2000/svg" width="175" height="100" fill="none" viewBox="0 0 175 100"><g clip-path="url(#a)"><rect width="175" height="100" fill="#7b238d" fill-opacity=".06" rx="8"/><path fill="#5c1a69" fill-opacity=".03" fill-rule="evenodd" d="M172.271-6c-6.8 2.27-14.11 3.198-24.978 1.415A100 100 0 0 1 140.22-6zM186-5.946v3.07c-7.893 3.787-15.54 6.31-28.795 5.651-20.04-.997-30.34-8.492-52.156-8.374-14.477.082-22.204.18-29.226-.401h47.361c11.199 2.368 19.99 6.134 33.489 6.739 13.736.613 21.32-2.637 29.327-6.685m0 8.648V5.21c-5.772 1.885-12.213 3.034-21.068 3-22.642-.073-38.492-9.27-56.785-7.99-9.237.713-16.065 2.237-24.72 3.35-9.466 1.214-12.96-1.596-20.614-4.208C57.967-2.291 52.138-4.254 45.993-6h7.166c3.737 1.023 7.368 2.024 10.825 2.883C85.57 2.228 84.42-.095 105.46-1.363c5.7-.343 9.926-.216 15.497.61 12.903 2.08 21.571 5.847 36.026 7.009C169.489 7.26 177.899 5.797 186 2.702m0 6.628v1.775c-8.489 1.582-17.438 1.84-29.155.306-9.869-1.292-18.997-3.827-28.456-5.855-13.535-2.863-21.809-1.918-34.625 1.48-10.862 3.12-13.773 5.418-22.735 9.446-8.856 3.987-10.021-1.664-12.637-5.74C54.194 4.19 47.222-.145 36.441-3.478 24.536-7.153 12.468-7.239 4.583-.27-3.36 7.065-3.935 9.187-12 11.301V9.453c.367-.131.697-.258 1-.385 4.118-1.745 6.642-4.003 9.106-6.51C1.729-1.222 5.013-4.257 9.786-6h23.57c8.173 1.947 16.647 5.394 22.068 8.424 5.225 2.915 7.596 7.79 10.608 9.302 3.904 1.963 10.496-.85 14.34-2.126 13.284-4.404 25.834-8.379 41.756-6.227 10.055 1.492 19.809 4.702 30.685 6.325C165.126 11.47 175.678 11.51 186 9.33m0 4.826v1.627c-9.007.814-18.121.58-28.81-1.469-8.74-1.675-16.999-3.569-25.596-5.417-12.766-2.723-19.508-2.76-31.957.405C70.956 17.46 75.42 31.927 68.283 33.62c-6.952 1.148-11.558-4.83-13.348-7.778-4.493-7.978-4.881-17.607-17.51-23.504C28.54-1.816 18.44-1.939 11.54 3.65 2.296 11.432 1.218 12.745-12 15.006v-1.19C-4.388 12.25.58 10.303 5.877 5.519 12.56-.778 18.729-4.92 32.4-1.39 44.992 2.057 50.44 8.87 53.604 16.136c1.617 3.717 7 19.059 16.525 9.822 6.333-6.138 7.238-9.132 17.603-13.825 9.934-4.495 21.629-7.12 34.402-5.717 19.314 2.56 36.745 9.854 58.006 8.305 1.984-.147 3.932-.336 5.859-.564m0 4.706v1.86c-10.214.356-17.597-.822-32.72-4.637-6.045-1.525-12.543-2.842-18.746-4.166-13.154-2.797-20.594-3.28-33.309.482-14.124 4.35-19.566 11.605-17.136 20.421 1.531 5.316 3.68 11.33-9.891 10.987-18.3-1.656-23.239-12.071-26.94-20.785-2.208-5.21-8.655-19.1-22.096-17.28-6.893.932-11.767 6.228-18.89 8.583C.63 16.196-5.53 17.21-12 18.044v-1.116l.274-.041c12.844-1.792 17.804-3.145 26.084-9.094 8.338-6.076 16.304-5.983 24.72.057 12.22 9.192 7.526 22.858 23.418 30.893 6.37 3.222 16.835 4.097 17.733-2.429l.071-.822c.1-6.088-1.25-9.887 4.306-15.555 8.072-7.855 23.972-12.561 39.894-10.55 13.154 1.76 25.841 5.451 38.469 7.982 7.642 1.53 15.333 1.832 23.031 1.493m0 5.95v2.461c-9.675-.078-16.144-2.743-25.036-5.733-10.782-3.622-20.098-6.452-32.439-8.252-10.236-1.488-17.172-.597-25.891 2.745-10.221 4.272-11.782 10.087-6.814 16.572 3.622 4.731 8.036 9.634-.518 13.948-14.455 5.933-32.065 2.13-41.396-5.73-11.04-9.297-7.921-13.485-14.958-22.047-4.147-5.046-8.072-7.303-17.365-4.065C10.397 18.612-.808 19.635-12 20.633v-.982c12.348-1.21 20.896-2.024 32.203-7.042 10.839-4.808 16.287-.617 20.528 5.3 6.864 9.569 4.096 16.806 19.192 25.29 5.254 2.957 10.013 3.963 17.208 4.54 4.916.282 8.618-.197 12.823-1.648 12.04-4.564.61-11.977-.244-18.13-.762-8.519 9.832-14.043 23.605-15.9 14.088-1.63 33.05 3.664 45.198 7.512 9.452 2.997 17.675 5.083 27.487 5.238m0 7.462v2.367c-15.21 2.02-16.49-3.68-26.308-8.775-10.078-5.23-19.019-8.672-32.921-9.772a49 49 0 0 0-2.696-.136c-11.011-.127-21.714 4.139-18.997 10.963.331.83.747 1.452 1.272 2.24 5.154 7.026 10.185 12.734-1.014 19.285-10.25 5.99-25.294 5.958-38.24 3.173-15.957-3.594-24.504-16.196-30.62-24.571-5.456-7.459-10.896-6.162-23.591-5.111C4.41 22.64-3.791 22.86-12 23.33v-.957c8.525-.576 16.554-.89 25.819-2.159 6.534-.891 15.599-3.001 20.544.323 4.118 2.764 6.75 10.804 10.307 14.938 4.55 5.3 11.982 12.19 21.68 14.708 3.32.859 6.31 1.272 9.874 1.64 1.303.122 2.503.196 3.81.27 9.97.376 20.242-1.476 25.683-6.592 4.515-4.248 2.279-8.738-1.157-12.913-4.37-5.12-7.576-9.785 1.344-14.34 11.587-5.279 23.555-3.787 36.213-.56 12.953 3.295 18.912 7.25 29.162 12.184 5.772 2.781 9.61 2.986 14.721 2.4m0 6.93v2.356c-11.932 2.168-17.222.642-24.245-5.847-6.512-6.02-13.449-12.897-26.675-14.75-10.911-1.529-17.157.921-15.655 7.504 1.351 5.916 3.199 8.272.762 14.508-4.399 11.286-25.798 15.003-43.775 13.481l-1.358-.114c-23.017-2.474-25.08-9.801-37.593-19.423-12.622-9.707-14.478-9.72-35.258-10.415-4.413-.151-9.266-.237-14.203-.114v-1.182c12.19-.4 31.196-.323 37.29 1.105 5.91 1.386 8.633 5.413 12.012 8.427C43.434 40.21 52.857 50.176 63.014 53c3.903 1.088 8.295 1.69 12.528 2.213 14.534 1.382 29.837-.459 38.585-7.798 6.599-5.533 4.062-12.206 1.144-18.143-2.495-5.083-1.776-9.389 8.999-10.338 9.553-.842 19.745 2.016 26.495 5.717 5.814 3.189 8.74 5.655 12.909 9.47 6.642 6.077 11.803 7.013 22.326 5.083m0 7.267v2.302c-9.79 2.678-12.737 2.36-22.067-3.308-6.894-4.187-10.078-8.325-15.763-12.639-5.694-4.31-13.464-6.134-16.303.633-1.243 2.965-1.416 6.224-2.709 9.459-3.408 8.488-10.869 12.21-24.742 15.386-7.776 1.78-15.381 2.135-23.676 1.808l-1.381-.065C57.967 58.395 53.46 55.47 41.284 45.76 28.886 35.872 16.673 31.624-4.439 30.39A102 102 0 0 0-12 30.233v-1.557c4.306-.05 8.532.142 12.306.474 27.738 2.44 32.64 7.806 47.628 20.06 7.935 6.49 13.793 7.82 26.975 9.225 15.534 1.411 29.889.03 41.964-6.047 13.097-6.591 8.906-13.915 11.594-22.572 2.703-8.717 15.433-3.038 21.133 1.08 7.439 5.385 12.356 13.879 24.777 16.328 3.91.768 7.835.184 11.623-.753m0 7.176v2.417c-5.894 2.228-13.844 4.735-18.811 1.791-2.738-1.632-6.275-5.536-9.352-7.777-2.221-1.615-10.134-7.508-14.175-6.277-4.355 1.32-7.396 6.841-11.572 9.4-8.791 5.394-25.517 9.618-38.34 10.121-5.45.213-10.725.024-16.144-.274-8.159-.478-17.655-1.603-24.397-4.367l-.905-.372c-16.059-6.927-16.497-13.977-38.578-19.62C6.883 36.936-3.223 35.195-12 35.669v-2.086c5.399-.216 11.048.225 15.871.994 15.936 2.54 25.424 6.452 35.458 13.846 11.537 8.5 17.33 11.62 36.551 13.44 17.036 1.42 29.607-.22 44.17-5.368 18.315-6.474 13.852-15.2 20.81-17.94 4.442-1.754 10.997 3.885 13.455 5.672 3.817 2.773 12.508 10.178 17.654 11.499 4.269 1.1 9.452-.438 14.031-2.078m0 6.756v2.016c-4.169 1.402-8.503 2.768-9.718 3.083-6.577 1.709-18.998 4.35-23.167-.618-3.184-3.786-2.99-7.237-13.039-5.765-9.337 1.366-16.122 3.574-24.634 5.798-12.636 3.312-18.278 2.756-31.706 2.143-10.156-.454-22.462-1.669-31.39-4.568-17.983-6.125-32.503-21.014-56.318-19.035-3.183.266-5.829.814-8.028 1.538V41.12c15.95-3.096 34.546 3.892 45.292 10.046C46.166 58.538 49.04 61.59 67.808 64.28c14.613 1.983 32.166 3.05 46.068-.814a588 588 0 0 0 26.459-8.03c10.027-3.297 12.111-1.121 16.388 4.432 4.284 5.573 7.49 6.113 17.518 4.028 4.779-.99 8.294-2.172 11.759-3.492m0 5.614v1.77c-12.55 3.95-26.121 7.115-40.591 7.63-13.585.483-9.286-6.424-30.361-3.087-3.53.56-5.284.838-9.021.85-6.8-.146-17.805-1.296-24.777-1.953a222 222 0 0 1-23.857-3.542c-14.736-3.038-26.036-11.016-39.427-15.1C7.559 49.41-1.017 50.253-6.738 56.345c-2.25 2.393-3.63 4.106-5.262 5.68V55.16c2.537-2.085 5.154-4.101 6.648-4.82 12.982-6.265 31.944 3.32 41.756 8.145 12.342 6.068 20.162 8.337 36.119 10.267 7.735.892 16.339 1.297 24.296 1.963 16.41 1.304 16.482-1.889 29.902-3.627 17.287-2.24 7.885 9.818 38.994 4.2 7.124-1.288 13.816-3.17 20.285-5.27m0 4.997v1.583c-12.449 3.626-23.038 5.986-36.551 8.93-20.011 4.358-20.364 5.07-40.972.703-9.567-2.024-17.077-4.183-27.091-5.847-11.68-1.942-24.87-3.864-35.3-7.512-8.547-3.091-27.89-13.069-37.73-11.163C-2.332 59.78.672 72.829-12 78.353V73.5C-.491 67.358-5.401 56.588 7.897 55.398c11.716-1.051 30.88 9.445 41.531 12.848 14.535 4.452 31.117 5.475 46.233 8.533 10.33 2.045 19.804 2.965 30.42 4.216 10.969 1.292 23.325-1.676 33.762-3.619 10.121-1.889 17.797-3.823 26.157-6.362m0 4.645v1.52c-13.096 3.735-26.366 7.402-37.888 12.563-10.487 4.698-16.985 5.393-29.888 3.075-2.242-.401-4.399-.86-6.591-1.337-9.97-2.204-19.976-5.696-29.844-8.37-9.56-2.593-19.401-5.251-29.032-7.741C42.06 72.612 28.31 65.113 17.672 64.692c-8.402-.335-10.515 5.987-12.758 9.654C.96 80.823-3.54 86.098-12 88.7v-3.13a27 27 0 0 0 3.415-1.538C3.13 77.71 4.115 65.64 10.247 62.99c8.115-3.5 26.919 5.647 33.97 8.186 7.253 2.618 17.89 4.85 26.027 6.792 11.049 2.63 19.595 4.592 30.255 7.892 12.766 3.925 27.623 7.904 41.352 3.104 6.326-2.213 10.977-3.987 17.755-5.966 8.848-2.576 17.545-4.784 26.394-7.34m0 4.674v1.635c-10.042 3.1-19.817 6.989-26.66 11.863-8.849 6.297-16.504 8.215-30.721 6.873-3.537-.335-6.901-.83-10.344-1.382-18.897-3.091-35.94-8.942-52.257-15.027-5.398-2.012-10.307-3.725-16.18-5.279-6.88-1.775-13.153-4.351-19.472-5.892-13.758-3.362-17.136 4.17-21.384 9.862C3.108 90.862-1.139 95.887-12 97.306v-2.699c6.376-1.092 10.365-3.774 15.138-8.828 4.04-4.269 6.238-9.18 9.962-13.073 4.054-4.224 10.006-3.487 16.713-1.77 6.93 1.775 13.384 4.726 20.629 6.706 24.618 6.808 50.05 18.262 77.429 20.866 22.462 2.024 22.52-5.123 37.815-11.277 5.593-2.25 13.018-4.703 20.314-6.898m0 5.365v2.236c-5.902 2.503-11.148 5.57-14.376 8.387-6.721 5.855-11.594 8.894-24.583 9.92-1.193.094-2.343.155-3.543.208-21.104.81-52.444-5.802-69.3-12.663-13.945-5.676-21.484-10.354-38.93-13.155-10.854-1.656-14.361 2.123-18.74 7.218-4.498 5.225-7.252 11.898-16.603 14.74l-2.674.699c-2.897.634-6.052.924-9.251.978v-2.188c19.551-.871 20.485-11.425 30.298-20.899 5.67-5.471 11.845-4.085 20.736-1.824 12.205 3.108 17.015 4.597 27.875 9.11 18.337 7.63 31.16 11.597 53.558 14.766 16.755 2.331 33.676 3.443 44.659-5.814 6.052-5.107 9.395-7.344 18.552-10.861.726-.278 1.503-.564 2.322-.858m0 7.43v3.614a50 50 0 0 0-3.314 2.445c-2.329 1.881-4.263 3.374-7.13 5.021a43 43 0 0 1-5.269 2.43h-6.196c2.824-.859 5.463-1.931 7.849-3.251 6.483-3.762 8.288-6.943 14.06-10.26m0 10.652v2.735l-.252.123h-5.232A72 72 0 0 0 186 103.78m-77.335 2.858H97.538c-8.756-1.567-17.531-3.627-23.994-6.277-9.337-3.827-14.124-7.48-25.143-10.579-20.363-5.254-22.543 5.005-32.26 12.554a37.2 37.2 0 0 1-7.396 4.302H2.073c8.49-2.319 13.472-7.087 18.704-13.372 6.476-7.79 12.234-9.654 26.53-6.068 17.338 4.519 24.346 12.16 45.142 16.434 4.83.994 10.336 2.057 16.216 3.006m-31.362 0h-8.237c-4.456-1.84-7.36-4.011-15.383-6.903-14.432-5.201-21.326 1.435-30.44 6.903h-4.99c8.93-5.091 14.377-11.209 21.709-12.186 11.63-1.553 25.395 8.55 35.444 11.662.589.176 1.23.352 1.897.524m-23.41 0H35.914c7.892-2.715 12.19-2.143 17.977 0M-12 4.518V.756C-9.24-1.788-6.919-4.074-4.38-6h4.362c-3.658 2.441-6.354 5.63-10.07 9.058A21 21 0 0 1-12 4.518" clip-rule="evenodd"/><path fill="#7b238d" fill-rule="evenodd" d="M97.446 38.41H76.254c-.966.002-1.75.705-1.754 1.573v25.915c.005.868.788 1.57 1.754 1.572h21.192c.966-.001 1.749-.704 1.754-1.572V39.983c-.003-.868-.788-1.571-1.754-1.573m-7.405 7.24c1.314.004 2.38.958 2.385 2.137v2.14H81.274v-2.14c.005-1.18 1.07-2.136 2.385-2.139h6.382zm-3.19-1.685c.205 0 .37.15.372.334v.624h-.746v-.624c0-.184.167-.334.373-.334m-6.987 6.69c-.223 0-.405-.163-.405-.363 0-.202.182-.364.405-.364h.6v-2.141c.004-1.582 1.432-2.864 3.195-2.867h2.009l.001-.62c.012-.579.538-1.042 1.183-1.042.644 0 1.169.463 1.182 1.042v.623h2.009c1.762.003 3.191 1.285 3.194 2.868v2.14h.601v-.001c.224 0 .405.163.405.363 0 .202-.18.363-.405.363zm0 1.66c-.223 0-.405-.163-.405-.363 0-.201.182-.363.405-.363h13.972c.223 0 .405.162.405.363s-.182.363-.405.363zm.88 12.095c-.224 0-.405-.163-.405-.363 0-.201.18-.363.405-.363h12.212c.224 0 .405.162.405.363s-.18.363-.405.363zm12.195-1.934H80.761c-.223 0-.403-.162-.403-.364V60.01a.34.34 0 0 1 .116-.258.43.43 0 0 1 .287-.107h12.178c.223 0 .403.162.403.363v2.104-.002c0 .202-.18.364-.403.364zm-11.773-.727v-1.377h11.368v1.377zm-2.728-24.063h15.766V34.01q.072-1.068-.34-1.32-.414-.253-1.482.192l.002-.001a.2.2 0 0 1-.044.016z" clip-rule="evenodd"/></g><defs><clipPath id="a"><rect width="175" height="100" fill="#fff" rx="8"/></clipPath></defs></svg>