<svg width="50" height="50" viewBox="0 0 50 50" fill="none" xmlns="http://www.w3.org/2000/svg">
<rect width="50" height="50" rx="25" fill="#8233C0" fill-opacity="0.11"/>
<path d="M34.8832 23.038H33.9902C33.7757 20.7066 32.6979 18.5393 30.9682 16.9614C29.2384 15.3835 26.9816 14.5088 24.6403 14.5088C22.299 14.5088 20.0422 15.3835 18.3124 16.9614C16.5827 18.5393 15.5049 20.7066 15.2904 23.038H14.3974C14.171 23.038 13.9539 23.128 13.7938 23.288C13.6337 23.4481 13.5438 23.6652 13.5438 23.8916C13.5476 25.9215 14.1062 27.9118 15.1593 29.6472C16.2124 31.3826 17.72 32.797 19.5188 33.7376V34.1345C19.5188 34.5873 19.6987 35.0215 20.0189 35.3417C20.339 35.6618 20.7732 35.8417 21.226 35.8417H28.0546C28.5074 35.8417 28.9416 35.6618 29.2617 35.3417C29.5819 35.0215 29.7618 34.5873 29.7618 34.1345V33.7376C31.5606 32.797 33.0682 31.3826 34.1213 29.6472C35.1744 27.9118 35.733 25.9215 35.7368 23.8916C35.7368 23.6652 35.6469 23.4481 35.4868 23.288C35.3267 23.128 35.1096 23.038 34.8832 23.038ZM29.4929 17.9411C29.6885 18.1011 29.8759 18.2701 30.0552 18.4479C27.7829 19.2472 25.9052 20.89 24.811 23.0359H21.6635C22.1969 21.5405 23.1791 20.2462 24.4758 19.3299C25.7725 18.4136 27.3204 17.9201 28.9082 17.9166C29.1034 17.9166 29.2987 17.9262 29.4929 17.9411ZM26.787 23.038C27.8219 21.4855 29.3876 20.3637 31.1904 19.883C31.7799 20.8418 32.1497 21.9193 32.2734 23.038H26.787ZM24.6403 16.2094C25.3252 16.21 26.007 16.3023 26.6675 16.4836C25.059 16.8826 23.5841 17.6986 22.3914 18.8493C21.1988 20 20.3305 21.4448 19.8741 23.038H17.0072C17.2189 21.1611 18.114 19.4277 19.5217 18.1683C20.9295 16.9089 22.7514 16.2117 24.6403 16.2094Z" fill="#8233C0"/>
</svg>
